<svg xmlns="http://www.w3.org/2000/svg" width="127" height="47" fill="none" viewBox="0 0 127 47">
  <path fill="#141414" d="M39.414 19.328V22H27.098V5.488h3.457v13.84h8.86Zm6.27-1.547L44.219 22h-3.457l6.023-16.512h4.078l6 16.512h-3.422l-1.464-4.219h-6.293Zm3.14-9.75c-.078.313-.187.688-.328 1.125-.14.438-.242.746-.305.926l-1.734 5.098h4.746l-1.781-5.203a20 20 0 0 1-.305-.973 35.375 35.375 0 0 0-.293-.973Zm23.754 11.297V22H59.113V5.488h12.985V8.16H62.57v4.149h8.813v2.671H62.57v4.348h10.008Zm5.613-7.336V22h-3.07V5.488h4.629l2.953 9.235c.133.515.27 1.035.41 1.558.14.516.278 1.032.41 1.547a50.446 50.446 0 0 0 .48-1.77c.087-.296.173-.59.259-.878l3.035-9.692h4.605V22h-3.07V11.992c0-.226.008-.68.024-1.36.023-.687.054-1.433.093-2.237a117.015 117.015 0 0 1-.726 2.671 47.148 47.148 0 0 1-.504 1.723L84.742 22h-2.46l-2.977-9.21-1.254-4.395c.047.906.082 1.66.105 2.261.024.594.035 1.04.035 1.336Z"/>
  <path fill="#3A3A3A" d="M29.744 37.968c.16.168.332.308.517.42.192.112.428.168.707.168.169 0 .349-.032.54-.096.2-.072.393-.192.576-.36.184-.168.332-.404.444-.708.12-.304.18-.696.18-1.176 0-.512-.075-.916-.227-1.212-.153-.304-.333-.52-.54-.648-.208-.136-.4-.204-.576-.204-.232 0-.46.076-.684.228-.225.144-.409.384-.553.72-.143.336-.215.784-.215 1.344v1.908l-.169-.384Zm1.165 1.14a4.18 4.18 0 0 1-.985-.108 3.3 3.3 0 0 1-.78-.288 2.973 2.973 0 0 1-.575-.42c.088-.112.152-.276.192-.492.047-.216.072-.56.072-1.032V32.1c0-.192-.02-.348-.06-.468a.43.43 0 0 0-.24-.288c-.129-.064-.329-.096-.6-.096 0-.088.008-.168.023-.24a.648.648 0 0 1 .085-.204c.12 0 .287-.02.503-.06.224-.04.44-.092.648-.156a1.84 1.84 0 0 0 .456-.192.347.347 0 0 1 .18.144c.056.072.085.184.085.336v3.132c0 .144-.009.268-.024.372-.017.096-.032.188-.049.276l-.047 1.068-.229-.552c.105-.256.192-.452.264-.588.08-.136.14-.236.18-.3a1.74 1.74 0 0 1 .337-.384c.16-.144.352-.264.576-.36.224-.096.468-.144.732-.144.471 0 .872.096 1.2.288.335.184.591.472.767.864.184.392.277.896.277 1.512 0 .56-.124 1.072-.372 1.536A2.94 2.94 0 0 1 32.48 38.7c-.449.272-.973.408-1.573.408Zm7.897-3.684c.208-.512.256-.86.144-1.044-.104-.192-.332-.32-.684-.384a1.737 1.737 0 0 1-.072-.252 2.915 2.915 0 0 1-.012-.264l.564.024h1.26a104 104 0 0 0 .564-.024c0 .08-.004.164-.012.252 0 .088-.02.176-.06.264a.933.933 0 0 0-.372.168c-.096.08-.188.204-.276.372a9.815 9.815 0 0 0-.324.708l-1.764 4.2c-.224.544-.428.984-.612 1.32-.176.336-.344.592-.504.768a1.25 1.25 0 0 1-.468.36c-.152.064-.32.096-.504.096-.24 0-.432-.032-.576-.096a2.245 2.245 0 0 1-.324-.18 1.546 1.546 0 0 1-.036-.456c.008-.176.024-.316.048-.42.136.024.268.04.396.048a3 3 0 0 0 .372.024c.232 0 .452-.056.66-.168.216-.112.4-.292.552-.54.112-.168.28-.5.504-.996.224-.488.46-1.052.708-1.692l.828-2.088Zm-1.404 3.828c-.192-.424-.396-.868-.612-1.332l-.6-1.356a35.67 35.67 0 0 0-.504-1.092c-.184-.4-.34-.7-.468-.9-.12-.2-.236-.34-.348-.42a.812.812 0 0 0-.36-.156 1.752 1.752 0 0 1-.06-.24 3.05 3.05 0 0 1-.012-.276l.696.024h1.428l.828-.024c0 .104-.008.2-.024.288a.739.739 0 0 1-.06.228c-.432.072-.68.2-.744.384-.064.176.012.488.228.936.112.232.24.512.384.84.144.32.284.644.42.972.136.32.252.604.348.852l-.54 1.272Zm10.331-1.188a2.202 2.202 0 0 1-.804.78c-.32.176-.708.264-1.164.264-.408 0-.804-.104-1.188-.312a2.596 2.596 0 0 1-.936-.948c-.248-.424-.372-.948-.372-1.572 0-.48.096-.94.288-1.38.192-.44.472-.8.84-1.08.376-.28.832-.42 1.368-.42.368 0 .704.044 1.008.132.312.088.58.224.804.408-.032.232-.056.46-.072.684-.008.224-.012.452-.012.684a.883.883 0 0 1-.264.072c-.104.016-.2.024-.288.024-.048-.464-.184-.82-.408-1.068a1.111 1.111 0 0 0-.864-.372c-.392 0-.704.184-.936.552-.232.368-.348.896-.348 1.584 0 .4.064.78.192 1.14.136.352.332.64.588.864.256.216.568.324.936.324.256 0 .496-.06.72-.18.232-.12.436-.292.612-.516.064.032.124.08.18.144.056.056.096.12.12.192Zm2.835-.828c0 .344.036.608.108.792.072.176.188.3.348.372.16.064.364.104.612.12.024.064.04.14.048.228.008.08.012.176.012.288-.12-.008-.264-.016-.432-.024-.16 0-.332-.004-.516-.012h-1.452c-.304.008-.536.02-.696.036 0-.112.004-.208.012-.288a.879.879 0 0 1 .048-.228c.216-.016.384-.052.504-.108a.524.524 0 0 0 .252-.312 2.15 2.15 0 0 0 .072-.624v-1.2h1.08v.96Zm0-1.752v.948h-1.08V35.1l1.08-1.176c0 .272-.024.52-.072.744-.048.216-.092.432-.132.648l.204.168Zm-.264-.096c.088-.224.156-.408.204-.552.048-.144.1-.264.156-.36.176-.28.384-.512.624-.696.24-.184.516-.276.828-.276.304 0 .58.096.828.288-.016.128-.032.276-.048.444-.016.168-.028.336-.036.504v.468a2.388 2.388 0 0 1-.684.108c-.016-.384-.08-.636-.192-.756a.501.501 0 0 0-.396-.18c-.136 0-.284.08-.444.24-.16.152-.296.356-.408.612-.112.256-.168.54-.168.852l-.264-.696Zm-.816 1.044V35.1c0-.192-.02-.348-.06-.468a.472.472 0 0 0-.252-.276c-.128-.064-.324-.1-.588-.108 0-.088.008-.168.024-.24a.648.648 0 0 1 .084-.204c.248-.016.532-.064.852-.144.32-.08.572-.168.756-.264a.336.336 0 0 1 .18.156c.056.072.084.196.084.372l-1.08 2.508Zm4.14 5.508c0-.112.004-.212.012-.3a.857.857 0 0 1 .048-.216c.216-.016.384-.056.504-.12a.481.481 0 0 0 .252-.312c.048-.144.072-.348.072-.612V35.1c0-.192-.02-.348-.06-.468a.472.472 0 0 0-.252-.276c-.128-.064-.324-.1-.588-.108 0-.088.008-.168.024-.24a.648.648 0 0 1 .084-.204c.248-.016.532-.064.852-.144.32-.08.572-.168.756-.264a.336.336 0 0 1 .18.156c.056.072.084.196.084.372 0 .184-.028.36-.084.528-.048.16-.116.376-.204.648l.288.228v4.812c0 .344.036.604.108.78a.618.618 0 0 0 .348.372c.16.072.364.116.612.132.024.064.04.136.048.216.008.088.012.188.012.3-.12-.008-.264-.016-.432-.024-.16 0-.332-.004-.516-.012h-1.452c-.304.008-.536.02-.696.036Zm2.964-2.832a2.72 2.72 0 0 1-.6-.06 9.127 9.127 0 0 1-.564-.156v-.924c.16.168.332.308.516.42.192.112.428.168.708.168.168 0 .348-.032.54-.096.2-.072.392-.192.576-.36.184-.168.332-.404.444-.708.12-.304.18-.696.18-1.176 0-.424-.06-.788-.18-1.092-.112-.312-.272-.552-.48-.72a1.034 1.034 0 0 0-.684-.252c-.232 0-.46.076-.684.228-.224.144-.408.384-.552.72-.144.336-.216.784-.216 1.344l-.348-1.272c.104-.256.192-.452.264-.588.08-.136.14-.236.18-.3a1.74 1.74 0 0 1 .336-.384c.16-.144.352-.264.576-.36.224-.096.468-.144.732-.144.472 0 .872.092 1.2.276.336.184.592.464.768.84.184.376.276.856.276 1.44a3.45 3.45 0 0 1-.372 1.608c-.248.48-.596.86-1.044 1.14-.448.272-.972.408-1.572.408Zm5.967 0c-.472 0-.825-.12-1.056-.36-.224-.248-.337-.644-.337-1.188v-3.252a2.816 2.816 0 0 0-.371-.096 2.496 2.496 0 0 0-.492-.06 1.238 1.238 0 0 1 .108-.528h.755V32.04c.16-.04.317-.104.469-.192.16-.088.3-.184.42-.288.08.032.132.08.156.144.023.064.035.224.035.48v1.44h1.56c0 .08-.008.168-.023.264a1.123 1.123 0 0 1-.084.264 7.622 7.622 0 0 0-.792.06 6.86 6.86 0 0 0-.66.096v3c0 .264.028.484.084.66a.754.754 0 0 0 .24.372.59.59 0 0 0 .372.12 1.163 1.163 0 0 0 .791-.288.71.71 0 0 1 .18.396c-.128.152-.324.28-.587.384a2.027 2.027 0 0 1-.768.156Zm2.154-.072c0-.112.005-.208.013-.288a.879.879 0 0 1 .047-.228c.32-.016.537-.092.648-.228.12-.144.18-.416.18-.816V35.1c0-.192-.02-.348-.06-.468a.472.472 0 0 0-.251-.276c-.129-.064-.325-.1-.589-.108 0-.088.009-.168.025-.24a.648.648 0 0 1 .084-.204 3.83 3.83 0 0 0 .504-.072c.208-.048.408-.1.6-.156.192-.064.34-.124.444-.18a.347.347 0 0 1 .18.144c.056.072.084.184.084.336 0 .128-.008.276-.025.444a9.84 9.84 0 0 1-.072.744l-.12.012c.112-.304.192-.508.24-.612.056-.104.097-.172.12-.204.129-.184.34-.372.636-.564.305-.2.665-.3 1.08-.3.337 0 .645.076.925.228.28.152.483.412.611.78.032.096.049.228.049.396h-.037c.073-.2.153-.36.24-.48.136-.184.352-.372.648-.564.296-.2.653-.3 1.069-.3.303 0 .584.064.84.192.256.12.46.324.612.612.16.28.24.664.24 1.152v2.064c0 .272.023.484.072.636a.547.547 0 0 0 .24.3c.112.056.248.092.407.108.024.072.04.148.048.228.009.08.013.176.013.288-.177-.016-.38-.028-.612-.036h-1.189c-.167.008-.331.012-.492.012l-.444.024c0-.112.004-.208.013-.288a.879.879 0 0 1 .047-.228c.216-.016.384-.052.504-.108a.524.524 0 0 0 .252-.312 2.15 2.15 0 0 0 .072-.624v-1.824c0-.568-.103-.952-.311-1.152-.2-.208-.465-.312-.793-.312-.2 0-.403.068-.611.204-.209.128-.38.34-.517.636-.135.288-.203.676-.203 1.164v1.284c0 .416.063.692.191.828.129.128.345.2.648.216.024.072.04.148.048.228.008.08.012.176.012.288-.2-.016-.431-.028-.695-.036h-1.464c-.249.008-.48.02-.697.036 0-.112.005-.208.013-.288a.879.879 0 0 1 .047-.228c.216-.016.385-.052.504-.108a.524.524 0 0 0 .252-.312 2.15 2.15 0 0 0 .073-.624v-1.884c0-.568-.105-.952-.313-1.152-.2-.208-.464-.312-.792-.312-.2 0-.404.068-.612.204-.207.128-.38.34-.515.636-.136.288-.204.676-.204 1.164v1.344c0 .4.06.672.18.816.12.136.34.212.66.228.023.072.04.148.047.228.008.08.013.176.013.288a41.212 41.212 0 0 0-.456-.024c-.169 0-.337-.004-.505-.012h-.936a11.3 11.3 0 0 1-.516.012c-.167.008-.316.016-.444.024Zm13.198.072c-.568 0-1.04-.128-1.416-.384-.376-.256-.66-.6-.852-1.032a3.695 3.695 0 0 1-.276-1.44c0-.512.1-.984.3-1.416.2-.432.484-.78.852-1.044.376-.264.82-.396 1.332-.396.52 0 .936.112 1.248.336.32.224.556.524.708.9.16.376.256.792.288 1.248a.95.95 0 0 1-.18.408h-.612c-.272 0-.58.004-.924.012-.344 0-.696.008-1.056.024-.36.008-.7.02-1.02.036v-.612h2.544c0-.528-.096-.956-.288-1.284-.192-.328-.464-.492-.816-.492-.192 0-.38.06-.564.18-.184.112-.336.316-.456.612-.12.288-.18.7-.18 1.236 0 .392.048.776.144 1.152.104.368.28.676.528.924.256.24.616.36 1.08.36.264 0 .524-.06.78-.18s.484-.292.684-.516a.503.503 0 0 1 .18.168c.064.072.1.14.108.204-.272.36-.588.616-.948.768a2.968 2.968 0 0 1-1.188.228Zm3.103-.072c0-.112.004-.208.012-.288a.879.879 0 0 1 .048-.228c.32-.016.536-.092.648-.228.12-.144.18-.416.18-.816V35.1c0-.192-.02-.348-.06-.468a.472.472 0 0 0-.252-.276c-.128-.064-.324-.1-.588-.108 0-.088.008-.168.024-.24a.648.648 0 0 1 .084-.204c.136-.008.304-.032.504-.072.208-.048.408-.1.6-.156.192-.064.34-.124.444-.18a.347.347 0 0 1 .18.144c.056.072.084.184.084.336 0 .128-.008.276-.024.444-.008.168-.032.416-.072.744l-.12.012c.112-.304.192-.508.24-.612.056-.104.096-.172.12-.204.128-.184.34-.372.636-.564.304-.2.664-.3 1.08-.3.336 0 .644.076.924.228.28.152.484.412.612.78.032.096.048.228.048.396h-.036c.072-.2.152-.36.24-.48.136-.184.352-.372.648-.564.296-.2.652-.3 1.068-.3.304 0 .584.064.84.192.256.12.46.324.612.612.16.28.24.664.24 1.152v2.064c0 .272.024.484.072.636a.547.547 0 0 0 .24.3c.112.056.248.092.408.108.024.072.04.148.048.228.008.08.012.176.012.288-.176-.016-.38-.028-.612-.036h-1.188c-.168.008-.332.012-.492.012l-.444.024c0-.112.004-.208.012-.288a.879.879 0 0 1 .048-.228c.216-.016.384-.052.504-.108a.524.524 0 0 0 .252-.312 2.15 2.15 0 0 0 .072-.624v-1.824c0-.568-.104-.952-.312-1.152-.2-.208-.464-.312-.792-.312-.2 0-.404.068-.612.204-.208.128-.38.34-.516.636-.136.288-.204.676-.204 1.164v1.284c0 .416.064.692.192.828.128.128.344.2.648.216.024.072.04.148.048.228.008.08.012.176.012.288-.2-.016-.432-.028-.696-.036h-1.464c-.248.008-.48.02-.696.036 0-.112.004-.208.012-.288a.879.879 0 0 1 .048-.228c.216-.016.384-.052.504-.108a.524.524 0 0 0 .252-.312 2.15 2.15 0 0 0 .072-.624v-1.884c0-.568-.104-.952-.312-1.152-.2-.208-.464-.312-.792-.312-.2 0-.404.068-.612.204-.208.128-.38.34-.516.636-.136.288-.204.676-.204 1.164v1.344c0 .4.06.672.18.816.12.136.34.212.66.228.024.072.04.148.048.228.008.08.012.176.012.288a41.212 41.212 0 0 0-.456-.024c-.168 0-.336-.004-.504-.012h-.936c-.176.008-.348.012-.516.012-.168.008-.316.016-.444.024Z"/>
  <rect width="30" height="10" x="97" fill="#C3D9F2" rx="5"/>
  <path fill="#171717" d="M105.887 3.988c.653 0 1.134.17 1.441.512.307.339.461.849.461 1.531 0 .69-.184 1.205-.551 1.543-.367.336-.899.504-1.597.504-.722 0-1.254-.21-1.598-.629-.341-.422-.512-1.066-.512-1.933 0-.443.034-.832.102-1.168a2.78 2.78 0 0 1 .316-.868c.146-.24.334-.44.563-.601.229-.164.517-.296.863-.395.174-.05.444-.102.809-.16.364-.06.825-.123 1.382-.191v.918c-.369.036-.735.08-1.097.129-.36.05-.684.108-.973.175-.289.066-.509.142-.66.23a1.141 1.141 0 0 0-.492.58c-.099.25-.155.6-.168 1.05.135-.409.345-.715.629-.918.286-.206.647-.309 1.082-.309Zm.754 2.055c0-.448-.073-.776-.219-.984-.146-.211-.384-.317-.715-.317-.349 0-.607.106-.773.317-.164.208-.246.536-.246.984 0 .435.078.758.234.969.156.21.396.316.719.316.359 0 .616-.104.769-.312.154-.209.231-.533.231-.973Zm2.933.055c0 .411.076.722.227.933.153.209.371.313.652.313.193 0 .35-.042.473-.125a.677.677 0 0 0 .262-.38l1.035.09c-.3.766-.908 1.15-1.825 1.15-.635 0-1.123-.188-1.464-.563-.342-.378-.512-.927-.512-1.649 0-.698.173-1.234.519-1.61.347-.374.838-.562 1.473-.562.607 0 1.07.202 1.391.606.32.4.48.99.48 1.765v.032h-2.711Zm1.649-.688c-.021-.341-.103-.596-.246-.765a.715.715 0 0 0-.579-.258c-.257 0-.457.09-.597.27-.138.179-.211.43-.219.753h1.641Zm3.75-.894V8h-1.102V4.516h-1.183v-.743h3.468v.743h-1.183Zm2.945 3.562c-.409 0-.728-.11-.957-.332-.229-.224-.344-.538-.344-.941 0-.438.142-.77.426-.996.286-.227.7-.345 1.242-.356l.91-.016v-.214c0-.276-.048-.48-.144-.614-.097-.135-.254-.203-.473-.203-.203 0-.353.047-.449.14-.094.092-.152.244-.176.458l-1.144-.055c.143-.836.748-1.254 1.816-1.254.534 0 .945.132 1.234.395.289.263.434.637.434 1.12v1.54c0 .237.026.401.078.492.055.089.145.133.27.133.083 0 .164-.008.242-.023v.593a4.317 4.317 0 0 1-.348.075 1.949 1.949 0 0 1-.355.027c-.276 0-.481-.068-.614-.203-.13-.136-.208-.335-.234-.598h-.023a1.646 1.646 0 0 1-.579.625 1.554 1.554 0 0 1-.812.207Zm1.277-2.035-.562.008c-.258.013-.439.04-.543.082a.526.526 0 0 0-.246.21.738.738 0 0 0-.082.376c0 .2.045.35.136.449a.496.496 0 0 0 .372.144.845.845 0 0 0 .472-.14.965.965 0 0 0 .332-.387 1.19 1.19 0 0 0 .121-.527v-.215Z"/>
</svg>
