<svg xmlns="http://www.w3.org/2000/svg" width="73" height="44" fill="none" viewBox="0 0 73 44">
  <path fill="#141414" d="M18.25 14.781 16.787 19H13.33l6.023-16.512h4.078l6 16.512h-3.422l-1.464-4.219H18.25Zm3.141-9.75c-.078.313-.187.688-.328 1.125-.14.438-.242.746-.305.926l-1.734 5.098h4.746l-1.78-5.203a20 20 0 0 1-.305-.973 35.375 35.375 0 0 0-.293-.973Zm22.606 11.297V19H31.68V2.488h3.457v13.84h8.86Zm5.812-3.387V19h-3.457V2.488h12.176V5.16h-8.719v5.11h8.45v2.671h-8.45Z"/>
  <path fill="#5A5A5A" d="M4.8 37v-6.6h1.08v2.724h2.832V30.4h1.08V37h-1.08v-2.892H5.88V37H4.8Zm9.691.12c-.52 0-.976-.104-1.368-.312a2.258 2.258 0 0 1-.9-.876c-.208-.384-.312-.828-.312-1.332v-1.8c0-.512.104-.956.312-1.332.216-.376.516-.668.9-.876.392-.208.848-.312 1.368-.312.52 0 .972.104 1.356.312.392.208.692.5.9.876.216.376.324.82.324 1.332v1.164h-4.104v.636c0 .52.132.92.396 1.2.264.272.64.408 1.128.408.416 0 .752-.072 1.008-.216a.953.953 0 0 0 .468-.672h1.08c-.072.552-.344.992-.816 1.32-.464.32-1.044.48-1.74.48Zm-1.524-3.972h3.048V32.8c0-.52-.132-.92-.396-1.2-.256-.28-.632-.42-1.128-.42-.488 0-.864.14-1.128.42-.264.28-.396.68-.396 1.2v.348ZM19.19 37v-6.6h1.032V34c0 .344-.016.712-.048 1.104-.023.392-.052.704-.084.936l2.712-5.64h1.38V37h-1.031v-3.6c0-.352.012-.724.035-1.116.032-.392.064-.704.096-.936L20.57 37h-1.38Zm2.496-7.68c-.576 0-1.04-.16-1.392-.48-.352-.32-.527-.74-.527-1.26h.852c0 .312.096.564.288.756.192.192.448.288.767.288.329 0 .588-.096.78-.288.2-.192.3-.444.3-.756h.852c0 .52-.176.94-.528 1.26-.351.32-.816.48-1.392.48Zm4.712 9.84V30.4h1.08v1.26h.012c.056-.432.244-.768.564-1.008.328-.248.74-.372 1.236-.372.664 0 1.192.22 1.584.66.4.432.6 1.028.6 1.788v1.932c0 .76-.2 1.36-.6 1.8-.392.44-.92.66-1.584.66-.496 0-.904-.124-1.224-.372a1.509 1.509 0 0 1-.576-1.008h-.036l.024 1.5v1.92h-1.08Zm2.532-2.976c.456 0 .812-.136 1.068-.408.264-.272.396-.664.396-1.176v-1.8c0-.512-.132-.904-.396-1.176-.256-.272-.612-.408-1.068-.408-.44 0-.792.14-1.056.42-.264.28-.396.668-.396 1.164v1.8c0 .496.132.884.396 1.164.264.28.616.42 1.056.42Zm7.147.912c-.8 0-1.432-.224-1.896-.672-.456-.456-.684-1.072-.684-1.848v-1.752c0-.784.228-1.4.684-1.848.464-.448 1.096-.672 1.896-.672.8 0 1.428.224 1.884.672.464.448.696 1.06.696 1.836v1.764c0 .776-.232 1.392-.696 1.848-.456.448-1.084.672-1.884.672Zm0-.96c.472 0 .84-.132 1.104-.396.264-.264.396-.652.396-1.164v-1.752c0-.512-.132-.9-.396-1.164-.264-.264-.632-.396-1.104-.396-.464 0-.832.132-1.104.396-.264.264-.396.652-.396 1.164v1.752c0 .512.132.9.396 1.164.272.264.64.396 1.104.396Zm7.244.984c-.8 0-1.44-.224-1.92-.672-.473-.448-.709-1.064-.709-1.848v-1.8c0-.784.236-1.4.709-1.848.48-.448 1.12-.672 1.92-.672.76 0 1.372.204 1.836.612.464.408.708.964.732 1.668h-1.08c-.024-.424-.168-.748-.432-.972-.257-.232-.608-.348-1.056-.348-.472 0-.849.136-1.128.408-.28.264-.42.644-.42 1.14V34.6c0 .496.14.88.42 1.152.28.272.656.408 1.128.408.448 0 .8-.116 1.056-.348.264-.232.407-.556.431-.972h1.08c-.023.704-.267 1.26-.731 1.668-.464.408-1.076.612-1.836.612Zm7.147 0c-.52 0-.976-.104-1.368-.312a2.258 2.258 0 0 1-.9-.876c-.208-.384-.312-.828-.312-1.332v-1.8c0-.512.104-.956.312-1.332.216-.376.516-.668.9-.876.392-.208.848-.312 1.368-.312.52 0 .972.104 1.356.312.392.208.692.5.9.876.216.376.324.82.324 1.332v1.164h-4.104v.636c0 .52.132.92.396 1.2.264.272.64.408 1.128.408.416 0 .752-.072 1.008-.216a.953.953 0 0 0 .468-.672h1.08c-.072.552-.344.992-.816 1.32-.464.32-1.044.48-1.74.48Zm-1.524-3.972h3.048V32.8c0-.52-.132-.92-.396-1.2-.256-.28-.632-.42-1.128-.42-.488 0-.864.14-1.128.42-.264.28-.396.68-.396 1.2v.348ZM57.124 37v-5.64h-2.4v-.96h5.88v.96h-2.4V37h-1.08Zm5.31 0v-6.6h1.08v2.424h1.884c.744 0 1.328.188 1.752.564.432.368.648.876.648 1.524 0 .64-.216 1.148-.648 1.524-.432.376-1.016.564-1.752.564h-2.964Zm1.08-.984h1.884c.416 0 .732-.092.948-.276.224-.192.336-.468.336-.828 0-.36-.112-.632-.336-.816-.216-.192-.532-.288-.948-.288h-1.884v2.208Z"/>
</svg>
